# xmcd
#
# Track frame offsets:
#	150
#	24675
#	65770
#	88530
#
# Disc length: 1398 seconds
#
# Revision: 1
# Processed by: cddbd v1.5.1PL0 Copyright (c) Steve Scherf et al.
# Submitted via: EasyCDDAExtractor 8.0.2.1
#
DISCID=2f057404
DTITLE=Black Sabbath - Muncipal Auditorium Nashville 09-02-77 Disc 2
DYEAR=1977
DGENRE=Hard Rock
TTITLE0=NIB
TTITLE1=Iron Man
TTITLE2=Children Of The Grave
TTITLE3=Paranoid
EXTD=
EXTT0=
EXTT1=
EXTT2=
EXTT3=
PLAYORDER=
